HIERARCHY
ROOT Hips
{
	OFFSET	0.000000	0.000000	0.000000
	CHANNELS	6	Xposition	Yposition	Zposition	Zrotation	Xrotation	Yrotation
	JOINT LeftHip
	{
		OFFSET	15.500000	-8.200000	0.000000
		CHANNELS	3	Zrotation	Xrotation	Yrotation
		JOINT LeftKnee
		{
			OFFSET	0.000000	-41.000000	0.000000
			CHANNELS	3	Zrotation	Xrotation	Yrotation
			JOINT LeftAnkle
			{
				OFFSET	0.000000	-41.500000	0.000000
				CHANNELS	3	Zrotation	Xrotation	Yrotation
				End Site
				{
					OFFSET	0.000000	0.000000	22.875000
				}
			}
		}
	}
	JOINT RightHip
	{
		OFFSET	-15.500000	-8.200000	0.000000
		CHANNELS	3	Zrotation	Xrotation	Yrotation
		JOINT RightKnee
		{
			OFFSET	0.000000	-41.000000	0.000000
			CHANNELS	3	Zrotation	Xrotation	Yrotation
			JOINT RightAnkle
			{
				OFFSET	0.000000	-41.500000	0.000000
				CHANNELS	3	Zrotation	Xrotation	Yrotation
				End Site
				{
					OFFSET	0.000000	0.000000	22.875000
				}
			}
		}
	}
	JOINT Chest
	{
		OFFSET	0.000000	16.666667	0.000000
		CHANNELS	3	Zrotation	Xrotation	Yrotation
		JOINT LeftCollar
		{
			OFFSET	4.625000	33.333333	1.541667
			CHANNELS	3	Zrotation	Xrotation	Yrotation
			JOINT LeftShoulder
			{
				OFFSET	13.875000	0.000000	0.000000
				CHANNELS	3	Zrotation	Xrotation	Yrotation
				JOINT LeftElbow
				{
					OFFSET	0.000000	-28.000000	0.000000
					CHANNELS	3	Zrotation	Xrotation	Yrotation
					JOINT LeftWrist
					{
						OFFSET	0.000000	-25.000000	0.000000
						CHANNELS	3	Zrotation	Xrotation	Yrotation
						End Site
						{
							OFFSET	0.000000	-7.500000	0.000000
						}
					}
				}
			}
		}
		JOINT RightCollar
		{
			OFFSET	-4.625000	33.333333	1.541667
			CHANNELS	3	Zrotation	Xrotation	Yrotation
			JOINT RightShoulder
			{
				OFFSET	-13.875000	0.000000	0.000000
				CHANNELS	3	Zrotation	Xrotation	Yrotation
				JOINT RightElbow
				{
					OFFSET	0.000000	-28.000000	0.000000
					CHANNELS	3	Zrotation	Xrotation	Yrotation
					JOINT RightWrist
					{
						OFFSET	0.000000	-25.000000	0.000000
						CHANNELS	3	Zrotation	Xrotation	Yrotation
						End Site
						{
							OFFSET	0.000000	-7.500000	0.000000
						}
					}
				}
			}
		}
		JOINT Neck
		{
			OFFSET	0.000000	33.333333	0.000000
			CHANNELS	3	Zrotation	Xrotation	Yrotation
			JOINT Head
			{
				OFFSET	0.000000	12.000000	0.000000
				CHANNELS	3	Zrotation	Xrotation	Yrotation
				End Site
				{
					OFFSET	0.000000	15.000000	0.000000
				}
			}
		}
	}
}
MOTION
Frames:	32
Frame Time:	0.012000
12.87	97.32	-99.27	20.54	68.42	-18.79	47.97	-60.15	46.49	0.00	27.14	0.00	-15.90	43.93	17.54	-82.90	-87.88	-87.90	0.00	21.21	0.00	7.35	32.71	-12.22	8.14	13.01	0.43	0.00	0.00	0.00	59.32	-71.74	91.49	-19.59	-11.66	28.83	-24.53	3.79	0.00	0.00	0.00	0.00	-54.79	-58.72	-114.68	51.91	-3.16	-40.83	27.49	10.80	0.00	0.00	0.00	0.00	0.97	-23.93	52.78
12.75	97.35	-98.58	20.54	68.42	-18.79	48.37	-60.31	46.87	0.00	27.42	0.00	-15.76	43.87	17.49	-87.16	-87.89	-92.21	0.00	21.19	0.00	7.30	32.66	-12.12	8.17	13.01	0.43	0.00	0.00	0.00	59.47	-71.85	91.55	-19.56	-11.70	28.88	-24.47	3.76	0.00	0.00	0.00	0.00	-54.90	-58.72	-114.81	51.95	-3.16	-40.86	27.37	10.75	0.00	0.00	0.00	0.00	0.97	-23.64	52.73
12.82	97.34	-98.85	20.54	68.42	-18.79	48.77	-60.46	47.25	0.00	27.70	0.00	-15.62	43.79	17.44	-91.71	-87.88	-96.80	0.00	21.18	0.00	7.12	32.44	-12.09	8.20	13.02	0.43	0.00	0.00	0.00	59.73	-71.94	91.73	-19.53	-11.66	28.91	-24.40	3.75	0.00	0.00	0.00	0.00	-54.97	-58.76	-114.88	51.99	-3.21	-40.90	27.23	10.70	0.00	0.00	0.00	0.00	0.96	-23.48	52.70
12.94	97.32	-99.16	21.46	68.89	-19.70	49.22	-60.63	47.66	0.00	28.03	0.00	-15.49	43.73	17.43	-95.97	-87.87	-101.10	0.00	21.17	0.00	6.98	32.32	-11.95	8.22	13.01	0.43	0.00	0.00	0.00	59.88	-72.02	91.82	-19.49	-11.71	28.97	-24.37	3.73	0.00	0.00	0.00	0.00	-55.05	-58.79	-114.94	52.01	-3.25	-40.93	27.12	10.64	0.00	0.00	0.00	0.00	0.83	-23.68	52.76
12.99	97.32	-98.43	21.46	68.89	-19.70	49.59	-60.78	48.02	0.00	28.31	0.00	-15.33	43.67	17.38	-99.93	-87.85	-105.09	0.00	21.16	0.00	6.81	32.19	-11.79	8.25	13.01	0.41	0.00	0.00	0.00	60.01	-72.13	91.89	-19.43	-11.77	29.00	-24.36	3.72	0.00	0.00	0.00	0.00	-55.16	-58.82	-115.03	52.02	-3.29	-40.98	27.04	10.60	0.00	0.00	0.00	0.00	0.88	-23.43	52.70
13.09	97.29	-98.70	21.46	68.89	-19.70	49.96	-60.92	48.34	0.00	28.59	0.00	-15.17	43.63	17.35	-103.65	-87.82	-108.84	0.00	21.16	0.00	6.65	32.07	-11.62	8.27	13.00	0.41	0.00	0.00	0.00	60.05	-72.22	91.92	-19.36	-11.88	29.07	-24.40	3.71	0.00	0.00	0.00	0.00	-55.24	-58.86	-115.08	52.01	-3.35	-41.01	26.97	10.60	0.00	0.00	0.00	0.00	0.85	-23.42	52.70
13.18	97.26	-98.94	22.16	69.23	-20.39	50.35	-61.07	48.68	0.00	28.88	0.00	-14.98	43.56	17.27	-107.16	-87.78	-112.38	0.00	21.16	0.00	6.45	31.99	-11.49	8.29	12.98	0.41	0.00	0.00	0.00	60.13	-72.30	91.99	-19.28	-11.93	29.06	-24.44	3.70	0.00	0.00	0.00	0.00	-55.35	-58.90	-115.17	51.99	-3.36	-41.04	26.96	10.59	0.00	0.00	0.00	0.00	0.85	-23.30	52.62
13.22	97.24	-98.44	22.16	69.23	-20.39	50.68	-61.23	48.98	0.00	29.19	0.00	-14.78	43.50	17.19	-110.50	-87.74	-115.73	0.00	21.14	0.00	6.29	31.98	-11.39	8.31	12.98	0.40	0.00	0.00	0.00	60.19	-72.35	92.07	-19.24	-11.96	29.07	-24.47	3.71	0.00	0.00	0.00	0.00	-55.43	-58.94	-115.20	51.98	-3.37	-41.06	26.94	10.58	0.00	0.00	0.00	0.00	0.83	-23.29	52.63
13.32	97.20	-98.67	22.16	69.23	-20.39	51.01	-61.40	49.29	0.00	29.51	0.00	-14.57	43.41	17.09	-113.52	-87.69	-118.73	0.00	21.10	0.00	6.17	32.01	-11.35	8.34	12.98	0.39	0.00	0.00	0.00	60.26	-72.38	92.18	-19.21	-11.99	29.07	-24.48	3.71	0.00	0.00	0.00	0.00	-55.51	-58.95	-115.25	51.99	-3.35	-41.08	26.94	10.55	0.00	0.00	0.00	0.00	0.81	-23.29	52.63
13.39	97.17	-98.89	22.61	69.36	-20.82	51.37	-61.58	49.60	0.00	29.81	0.00	-14.38	43.35	17.04	-115.90	-87.66	-121.13	0.00	21.07	0.00	6.08	32.07	-11.31	8.35	12.97	0.39	0.00	0.00	0.00	60.34	-72.40	92.29	-19.19	-12.00	29.08	-24.47	3.71	0.00	0.00	0.00	0.00	-55.53	-58.98	-115.25	51.98	-3.33	-41.06	26.91	10.52	0.00	0.00	0.00	0.00	0.82	-23.10	52.59
13.41	97.14	-98.73	22.61	69.36	-20.82	51.67	-61.74	49.88	0.00	30.10	0.00	-14.19	43.27	17.04	-118.39	-87.62	-123.61	0.00	21.02	0.00	5.98	32.09	-11.29	8.37	13.00	0.38	0.00	0.00	0.00	60.36	-72.35	92.33	-19.23	-11.97	29.05	-24.45	3.70	0.00	0.00	0.00	0.00	-55.45	-58.97	-115.14	52.03	-3.33	-41.06	26.89	10.50	0.00	0.00	0.00	0.00	0.81	-23.12	52.59
13.46	97.08	-98.94	22.61	69.36	-20.82	51.96	-61.88	50.14	0.00	30.38	0.00	-14.05	43.21	17.09	-120.13	-87.60	-125.31	0.00	20.98	0.00	5.90	32.11	-11.26	8.38	13.02	0.37	0.00	0.00	0.00	60.39	-72.32	92.39	-19.27	-11.93	29.03	-24.43	3.69	0.00	0.00	0.00	0.00	-55.35	-58.96	-115.00	52.06	-3.32	-41.09	26.89	10.48	0.00	0.00	0.00	0.00	0.80	-23.14	52.60
13.46	97.08	-98.94	22.61	69.36	-20.82	52.15	-62.00	50.32	0.00	30.57	0.00	-13.94	43.19	17.13	-121.93	-87.57	-127.09	0.00	20.96	0.00	5.89	32.09	-11.24	8.39	13.04	0.36	0.00	0.00	0.00	60.47	-72.26	92.50	-19.31	-11.87	29.03	-24.39	3.69	0.00	0.00	0.00	0.00	-55.26	-58.96	-114.89	52.09	-3.35	-41.13	26.85	10.46	0.00	0.00	0.00	0.00	0.79	-23.16	52.61
13.48	96.99	-99.23	23.24	69.45	-21.48	52.39	-62.12	50.54	0.00	30.81	0.00	-13.84	43.12	17.13	-123.02	-87.56	-128.15	0.00	20.90	0.00	5.86	32.10	-11.23	8.42	13.07	0.34	0.00	0.00	0.00	60.47	-72.20	92.51	-19.37	-11.83	29.03	-24.34	3.68	0.00	0.00	0.00	0.00	-55.17	-58.93	-114.78	52.16	-3.37	-41.21	26.85	10.43	0.00	0.00	0.00	0.00	0.69	-22.98	52.60
13.57	96.94	-99.01	23.24	69.45	-21.48	52.53	-62.21	50.65	0.00	30.97	0.00	-13.79	43.10	17.15	-123.87	-87.56	-128.92	0.00	20.83	0.00	5.80	32.07	-11.23	8.44	13.09	0.32	0.00	0.00	0.00	60.43	-72.15	92.49	-19.41	-11.82	29.04	-24.28	3.65	0.00	0.00	0.00	0.00	-55.10	-58.89	-114.72	52.22	-3.41	-41.29	26.84	10.42	0.00	0.00	0.00	0.00	0.68	-23.01	52.62
13.58	96.90	-99.13	23.52	69.33	-21.77	52.61	-62.30	50.70	0.00	31.08	0.00	-13.77	43.05	17.17	-124.28	-87.57	-129.30	0.00	20.80	0.00	5.73	32.07	-11.25	8.44	13.10	0.30	0.00	0.00	0.00	60.44	-72.11	92.51	-19.44	-11.78	29.04	-24.23	3.62	0.00	0.00	0.00	0.00	-55.06	-58.88	-114.67	52.24	-3.42	-41.37	26.83	10.42	0.00	0.00	0.00	0.00	0.71	-22.79	52.46
13.61	96.87	-99.23	23.52	69.33	-21.77	52.64	-62.38	50.70	0.00	31.17	0.00	-13.78	43.03	17.21	-124.56	-87.58	-129.56	0.00	20.79	0.00	5.70	32.05	-11.22	8.46	13.11	0.28	0.00	0.00	0.00	60.34	-72.07	92.42	-19.46	-11.77	29.04	-24.15	3.58	0.00	0.00	0.00	0.00	-55.02	-58.86	-114.64	52.25	-3.40	-41.42	26.79	10.41	0.00	0.00	0.00	0.00	0.70	-22.80	52.48
13.60	96.83	-99.26	23.52	69.33	-21.77	52.66	-62.45	50.70	0.00	31.22	0.00	-13.77	42.99	17.17	-124.46	-87.59	-129.45	0.00	20.77	0.00	5.69	32.04	-11.19	8.46	13.13	0.26	0.00	0.00	0.00	60.22	-72.00	92.32	-19.53	-11.74	29.03	-24.04	3.56	0.00	0.00	0.00	0.00	-54.96	-58.81	-114.58	52.26	-3.35	-41.45	26.74	10.40	0.00	0.00	0.00	0.00	0.71	-22.82	52.50
13.60	96.80	-99.26	23.54	69.01	-21.72	52.62	-62.52	50.65	0.00	31.24	0.00	-13.76	42.96	17.12	-124.19	-87.60	-129.16	0.00	20.73	0.00	5.66	32.09	-11.17	8.48	13.15	0.24	0.00	0.00	0.00	60.12	-71.92	92.24	-19.59	-11.71	29.01	-23.88	3.51	0.00	0.00	0.00	0.00	-54.88	-58.76	-114.54	52.26	-3.27	-41.47	26.71	10.38	0.00	0.00	0.00	0.00	0.68	-22.44	52.31
13.54	96.76	-99.73	23.54	69.01	-21.72	52.60	-62.60	50.61	0.00	31.27	0.00	-13.76	42.94	17.05	-123.65	-87.62	-128.61	0.00	20.71	0.00	5.67	32.18	-11.21	8.50	13.17	0.23	0.00	0.00	0.00	60.09	-71.84	92.20	-19.65	-11.64	29.00	-23.69	3.48	0.00	0.00	0.00	0.00	-54.75	-58.71	-114.48	52.25	-3.18	-41.48	26.68	10.36	0.00	0.00	0.00	0.00	0.66	-22.45	52.32
13.53	96.73	-99.69	23.54	69.01	-21.72	52.53	-62.67	50.53	0.00	31.29	0.00	-13.78	42.93	17.03	-122.87	-87.64	-127.84	0.00	20.69	0.00	5.71	32.28	-11.24	8.53	13.20	0.20	0.00	0.00	0.00	60.02	-71.74	92.12	-19.75	-11.55	28.99	-23.46	3.42	0.00	0.00	0.00	0.00	-54.59	-58.61	-114.46	52.29	-3.04	-41.49	26.63	10.33	0.00	0.00	0.00	0.00	0.64	-22.48	52.34
13.51	96.71	-99.63	23.51	68.73	-21.69	52.43	-62.72	50.41	0.00	31.30	0.00	-13.77	42.88	17.00	-121.78	-87.67	-126.73	0.00	20.66	0.00	5.74	32.33	-11.27	8.57	13.23	0.17	0.00	0.00	0.00	59.92	-71.64	91.98	-19.87	-11.44	29.00	-23.20	3.33	0.00	0.00	0.00	0.00	-54.40	-58.50	-114.40	52.35	-2.91	-41.53	26.54	10.27	0.00	0.00	0.00	0.00	0.59	-22.30	52.33
13.55	96.69	-99.96	23.51	68.73	-21.69	52.31	-62.77	50.27	0.00	31.33	0.00	-13.76	42.85	16.96	-120.30	-87.71	-125.24	0.00	20.66	0.00	5.76	32.38	-11.28	8.59	13.26	0.14	0.00	0.00	0.00	59.97	-71.56	92.02	-19.98	-11.29	29.01	-22.86	3.23	0.00	0.00	0.00	0.00	-54.24	-58.40	-114.39	52.39	-2.79	-41.56	26.40	10.20	0.00	0.00	0.00	0.00	0.58	-22.33	52.35
13.52	96.68	-99.85	23.51	68.73	-21.69	52.16	-62.82	50.10	0.00	31.36	0.00	-13.76	42.81	16.93	-118.34	-87.75	-123.33	0.00	20.71	0.00	5.80	32.41	-11.29	8.63	13.29	0.12	0.00	0.00	0.00	59.94	-71.46	91.93	-20.08	-11.14	29.03	-22.49	3.13	0.00	0.00	0.00	0.00	-54.04	-58.32	-114.32	52.42	-2.71	-41.61	26.22	10.08	0.00	0.00	0.00	0.00	0.55	-22.36	52.37
13.48	96.67	-99.66	23.14	68.22	-21.38	51.92	-62.83	49.83	0.00	31.34	0.00	-13.76	42.79	16.93	-116.16	-87.80	-121.13	0.00	20.73	0.00	5.82	32.42	-11.30	8.64	13.32	0.09	0.00	0.00	0.00	59.89	-71.36	91.83	-20.20	-11.00	29.06	-22.16	3.06	0.00	0.00	0.00	0.00	-53.88	-58.23	-114.30	52.47	-2.60	-41.72	26.04	9.96	0.00	0.00	0.00	0.00	0.69	-22.38	52.46
13.60	96.65	-100.32	23.14	68.22	-21.38	51.69	-62.86	49.57	0.00	31.37	0.00	-13.75	42.76	16.95	-113.43	-87.84	-118.39	0.00	20.76	0.00	5.82	32.40	-11.30	8.66	13.34	0.06	0.00	0.00	0.00	60.07	-71.22	91.96	-20.37	-10.73	29.24	-21.98	3.06	0.00	0.00	0.00	0.00	-53.68	-58.15	-114.25	52.49	-2.53	-41.80	25.87	9.84	0.00	0.00	0.00	0.00	0.68	-22.40	52.49
13.57	96.65	-100.11	23.03	68.05	-21.26	51.41	-62.87	49.26	0.00	31.40	0.00	-13.75	42.73	16.97	-110.60	-87.87	-115.56	0.00	20.79	0.00	5.81	32.42	-11.30	8.70	13.36	0.03	0.00	0.00	0.00	59.95	-71.12	91.77	-20.46	-10.64	29.27	-21.89	3.08	0.00	0.00	0.00	0.00	-53.50	-58.05	-114.26	52.54	-2.43	-41.92	25.75	9.75	0.00	0.00	0.00	0.00	0.63	-22.25	52.46
13.58	96.64	-100.18	22.79	67.71	-21.01	51.09	-62.89	48.91	0.00	31.44	0.00	-13.73	42.64	16.95	-106.77	-87.91	-111.71	0.00	20.84	0.00	5.79	32.43	-11.29	8.72	13.39	0.00	0.00	0.00	0.00	59.71	-70.99	91.45	-20.54	-10.60	29.23	-21.90	3.13	0.00	0.00	0.00	0.00	-53.24	-57.91	-114.18	52.63	-2.29	-42.05	25.67	9.69	0.00	0.00	0.00	0.00	0.74	-22.43	52.47
13.58	96.63	-100.48	22.59	67.41	-20.80	50.76	-62.90	48.56	0.00	31.47	0.00	-13.69	42.61	16.95	-102.54	-87.95	-107.46	0.00	20.91	0.00	5.78	32.47	-11.30	8.73	13.42	-0.04	0.00	0.00	0.00	59.23	-70.91	90.90	-20.51	-10.78	28.98	-21.91	3.17	0.00	0.00	0.00	0.00	-53.01	-57.77	-114.13	52.70	-2.12	-42.17	25.63	9.64	0.00	0.00	0.00	0.00	0.69	-22.16	52.42
13.56	96.63	-100.65	22.45	67.17	-20.64	50.39	-62.91	48.17	0.00	31.49	0.00	-13.64	42.56	16.97	-98.23	-87.97	-103.08	0.00	20.97	0.00	5.75	32.56	-11.36	8.74	13.46	-0.07	0.00	0.00	0.00	58.96	-70.79	90.54	-20.52	-10.80	28.80	-22.01	3.25	0.00	0.00	0.00	0.00	-52.73	-57.64	-114.04	52.74	-1.93	-42.27	25.59	9.59	0.00	0.00	0.00	0.00	0.65	-21.96	52.37
13.53	96.63	-100.72	22.17	66.68	-20.35	49.97	-62.91	47.73	0.00	31.52	0.00	-13.61	42.53	17.00	-93.60	-87.97	-98.43	0.00	21.03	0.00	5.73	32.60	-11.40	8.75	13.51	-0.10	0.00	0.00	0.00	58.69	-70.65	90.19	-20.53	-10.83	28.56	-22.16	3.31	0.00	0.00	0.00	0.00	-52.40	-57.47	-113.90	52.77	-1.75	-42.31	25.55	9.55	0.00	0.00	0.00	0.00	0.58	-21.78	52.33
13.56	96.62	-101.20	21.99	66.30	-20.16	49.54	-62.90	47.28	0.00	31.53	0.00	-13.59	42.54	17.08	-88.19	-87.97	-92.97	0.00	21.10	0.00	5.74	32.68	-11.44	8.76	13.54	-0.12	0.00	0.00	0.00	58.45	-70.50	89.86	-20.50	-10.84	28.31	-22.38	3.38	0.00	0.00	0.00	0.00	-52.07	-57.33	-113.78	52.76	-1.56	-42.35	25.48	9.50	0.00	0.00	0.00	0.00	0.52	-21.69	52.32
